<?xml version="1.0" standalone="no"?>
<!DOCTYPE svg PUBLIC "-//W3C//DTD SVG 20010904//EN"
    "http://www.w3.org/TR/2001/REC-SVG-20010904/DTD/svg10.dtd">
<svg xmlns="http://www.w3.org/2000/svg"
     width="16" height="16" viewBox="0 0 5120 5120">
    <g id="lue8CWQVXeTnX2sExcM8bA" fill="rgb(7,58,91)">
        <g>
            <path id="pltdLdfve"
                  d="M673 4490 c-18 -11 -35 -31 -39 -47 -5 -20 -10 -2338 -5 -2496 1 -18 12 -39 33 -58 51 -46 89 -41 189 28 131 88 324 219 439 298 58 40 115 77 127 83 19 10 20 9 15 -10 -4 -17 -2 -20 14 -16 15 4 397 269 954 662 154 108 169 118 182 110 7 -5 144 -107 303 -227 705 -533 832 -627 842 -627 13 0 12 18 -2 40 -8 13 -7 13 8 1 9 -7 17 -20 17 -28 0 -18 41 -11 78 13 47 31 67 130 39 197 -13 29 -166 153 -576 467 -25 19 -165 128 -311 241 -356 277 -332 262 -407 257 -65 -4 -81 -13 -513 -311 -41 -29 -196 -135 -345 -236 -148 -102 -297 -203 -330 -226 -33 -23 -116 -80 -185 -127 -69 -46 -169 -115 -223 -152 l-97 -68 0 1001 0 1001 1673 -2 1672 -3 3 -1127 2 -1128 -245 0 c-190 0 -244 -3 -241 -12 1 -7 1 -10 -1 -5 -3 4 -11 7 -19 7 -11 0 -14 -23 -14 -120 0 -73 4 -120 10 -120 9 0 14 15 11 33 -1 5 3 6 9 2 5 -3 10 -15 10 -26 0 -19 7 -20 293 -18 367 2 369 3 413 44 l34 33 -2 1317 -3 1317 -35 29 -34 29 -1856 0 c-1826 0 -1855 0 -1887 -20z"></path>
        </g>
    </g>
    <g id="l3jwvuaDXDVp7GyethhbPKe" fill="rgb(244,122,124)">
        <g>
            <path id="p1Eo8q5a2"
                  d="M1434 1268 c4 -163 13 -199 59 -249 52 -56 125 -79 252 -79 87 0 105 -3 105 -15 0 -30 29 -15 33 18 3 24 4 20 5 -17 2 -36 5 -47 16 -43 10 4 15 -12 19 -68 9 -126 50 -189 130 -202 43 -7 122 15 144 39 26 28 42 90 43 160 0 61 2 66 20 61 18 -5 20 0 22 53 1 50 2 53 5 17 4 -43 16 -56 27 -28 8 23 536 23 536 0 0 -8 7 -15 15 -15 8 0 15 -5 15 -11 0 -6 8 -9 19 -6 16 4 19 -4 24 -77 10 -139 43 -184 142 -193 60 -5 101 11 133 52 20 25 24 43 38 153 4 35 10 52 20 52 11 0 14 20 16 88 2 82 2 83 5 20 3 -51 8 -68 18 -68 8 0 15 6 15 14 0 10 27 14 118 18 169 7 237 41 283 143 15 33 19 66 19 183 l0 142 -1149 0 -1150 0 3 -142z m674 -55 c-10 -2 -26 -2 -35 0 -10 3 -2 5 17 5 19 0 27 -2 18 -5z m1000 0 c-10 -2 -28 -2 -40 0 -13 2 -5 4 17 4 22 1 32 -1 23 -4z m-831 -190 c-3 -10 -5 -2 -5 17 0 19 2 27 5 18 2 -10 2 -26 0 -35z m610 -70 c-2 -16 -4 -5 -4 22 0 28 2 40 4 28 2 -13 2 -35 0 -50z"></path>
        </g>
    </g>
    <g id="l2DRfdHhgy4Kd6nlXuroBFG" fill="rgb(134,213,242)">
        <g>
            <path id="pTamel5Qs"
                  d="M850 3239 l0 -1050 143 97 c78 54 192 131 252 172 61 42 137 94 170 117 33 23 182 124 330 226 149 101 304 207 345 236 485 334 486 334 557 286 32 -22 434 -332 667 -514 39 -31 171 -133 293 -228 197 -152 224 -176 234 -210 10 -33 9 -45 -7 -78 -11 -22 -32 -44 -51 -53 l-32 -15 -3 -119 c-2 -76 1 -124 8 -130 7 -7 92 -10 257 -8 l247 3 -2 1157 -3 1157 -1702 3 -1703 2 0 -1051z"></path>
            <path id="pyqyFScGO" d="M2463 3025 l-28 -24 38 -1 c33 0 37 3 37 25 0 31 -11 32 -47 0z"></path>
            <path id="pSQ3gHNFd"
                  d="M3710 1986 c0 -25 5 -48 10 -51 6 -3 10 1 10 9 0 9 5 16 10 16 7 0 8 6 2 16 -5 9 -7 25 -5 35 4 13 0 19 -11 19 -12 0 -16 -10 -16 -44z"></path>
        </g>
    </g>
    <g id="l8dzhyqYUeTgiyac487n3v" fill="rgb(255,217,132)">
        <g>
            <path id="p16DNeanqy" d="M2527 3068 c-72 -47 -64 -58 43 -58 105 0 113 10 47 58 l-43 31 -47 -31z"></path>
            <path id="pWIbuOGJC"
                  d="M2414 2991 c-47 -35 -142 -102 -447 -314 -62 -43 -113 -84 -115 -92 -3 -13 20 -15 147 -15 l151 0 0 -115 0 -115 -185 0 -185 0 0 80 c0 47 4 80 10 80 6 0 10 7 10 15 0 8 9 15 20 15 16 0 20 7 20 31 l0 31 -32 -24 c-124 -92 -146 -108 -153 -108 -5 0 -18 -9 -30 -20 -12 -12 -60 -47 -106 -78 l-84 -58 -3 -347 -2 -347 1150 0 1150 0 1 58 c0 31 2 168 4 304 l4 247 -162 123 c-88 68 -169 129 -179 136 -16 12 -18 10 -18 -17 0 -21 5 -31 15 -31 11 0 15 -12 15 -45 l0 -45 -190 0 -190 0 0 117 0 116 128 -6 127 -6 -26 22 c-15 12 -111 85 -214 162 -102 77 -207 155 -231 174 l-44 33 6 -86 7 -86 -187 0 -186 0 0 95 0 95 30 0 c27 0 30 3 30 30 0 17 -1 30 -2 30 -2 0 -26 -18 -54 -39z m366 -536 l0 -115 -185 0 -185 0 0 115 0 115 185 0 185 0 0 -115z m-646 -331 c13 -5 16 -25 16 -115 l0 -109 -185 0 -185 0 0 115 0 115 169 0 c93 0 176 -3 185 -6z m630 0 c13 -5 16 -25 16 -115 l0 -109 -185 0 -185 0 0 115 0 115 169 0 c93 0 176 -3 185 -6z m646 -109 l0 -115 -187 2 -188 3 -3 113 -3 112 191 0 190 0 0 -115z"></path>
            <path id="pjYMjfw54" d="M3290 2531 c0 -29 3 -31 36 -31 39 0 38 9 -6 40 l-30 21 0 -30z"></path>
            <path id="p11nL6eBCK"
                  d="M2005 1238 c-37 -13 -84 -46 -107 -73 -21 -25 -35 -79 -44 -172 -6 -70 -6 -73 15 -73 11 0 21 5 21 10 0 6 6 10 14 10 15 0 21 21 31 112 5 47 12 62 36 82 17 14 48 31 69 37 22 7 40 18 40 26 0 7 5 13 10 13 6 0 10 -6 10 -13 0 -8 17 -19 38 -25 55 -17 93 -60 98 -113 10 -91 15 -109 29 -109 10 0 15 -10 15 -30 0 -40 26 -40 35 0 11 51 -4 171 -29 220 -33 66 -98 104 -185 107 -36 1 -79 -3 -96 -9z"></path>
            <path id="p1CWXQaotz"
                  d="M2975 1226 c-84 -39 -108 -77 -121 -187 l-7 -62 33 7 c19 3 35 8 37 10 2 2 8 29 13 61 11 67 21 82 75 106 105 48 213 0 229 -101 6 -38 8 -40 42 -40 l36 0 -7 47 c-8 58 -24 89 -62 125 -52 50 -163 79 -163 43 0 -8 -4 -15 -10 -15 -5 0 -10 7 -10 15 0 21 -27 18 -85 -9z"></path>
            <path id="plWYofub7"
                  d="M3240 925 c0 -48 2 -55 20 -55 18 0 20 7 20 55 0 48 -2 55 -20 55 -18 0 -20 -7 -20 -55z"></path>
            <path id="pBPsN2UE3" d="M2880 920 c0 -41 21 -57 34 -24 13 34 7 64 -14 64 -17 0 -20 -7 -20 -40z"></path>
        </g>
    </g>
    <g id="l2fL63cck6528Y3A2I4J4cV" fill="rgb(254,252,227)">
        <g>
            <path id="pEHFj8Z6G"
                  d="M2444 3012 c-27 -18 -53 -39 -59 -46 -6 -8 -8 -55 -5 -117 l5 -104 200 0 c110 -1 206 1 213 3 8 3 12 30 12 87 0 93 -1 94 -113 174 -42 31 -52 34 -125 35 -75 1 -83 -1 -128 -32z"></path>
            <path id="p12sbY4Uvs"
                  d="M2135 2794 c-53 -36 -51 -34 -36 -43 12 -8 70 -5 78 3 3 2 3 18 1 35 l-3 31 -40 -26z"></path>
            <path id="pWYPeOelZ"
                  d="M3210 2610 c0 -8 -33 -11 -102 -9 l-103 2 -3 -147 -3 -146 221 0 220 0 0 68 c0 78 18 58 -193 215 -20 15 -37 23 -37 17z"></path>
            <path id="pJjnmizk8"
                  d="M1808 2567 l-57 -42 -1 -107 0 -108 215 0 215 0 0 145 0 145 -144 0 c-79 0 -150 2 -158 5 -7 2 -39 -15 -70 -38z"></path>
            <path id="pHkRkquKB"
                  d="M2380 2598 c0 -5 -1 -70 -1 -145 l0 -138 215 -3 216 -2 0 144 0 145 -215 3 c-118 2 -215 0 -215 -4z"></path>
            <path id="poJ39m7Fw"
                  d="M1754 2161 c-2 -2 -4 -69 -4 -148 l0 -143 215 0 215 0 0 139 c0 123 -2 140 -17 146 -19 8 -401 13 -409 6z"></path>
            <path id="pRZVCvxX8"
                  d="M2389 2162 c-11 -2 -14 -28 -12 -145 l2 -142 215 -3 216 -2 0 136 c0 95 -4 139 -12 147 -9 9 -70 12 -204 12 -105 0 -197 -1 -205 -3z"></path>
            <path id="pyUjUXb5x"
                  d="M3009 2159 c-6 -3 -8 -66 -7 -145 l3 -139 218 -3 217 -2 0 147 0 148 -211 0 c-116 0 -215 -3 -220 -6z"></path>
            <path id="pVrL31MFf"
                  d="M2019 1237 c-104 -30 -144 -86 -159 -229 -14 -136 -15 -130 23 -126 l32 3 8 98 c4 54 14 111 22 127 33 64 163 92 232 50 55 -33 65 -59 71 -180 l5 -110 28 0 29 0 0 93 c0 150 -30 217 -116 260 -44 23 -122 29 -175 14z"></path>
            <path id="pIBbMaqXX"
                  d="M2994 1233 c-99 -43 -130 -99 -140 -252 l-7 -101 31 0 c33 0 32 -5 47 161 9 97 60 142 161 142 94 0 154 -57 154 -146 0 -24 3 -72 6 -106 7 -60 7 -61 37 -61 l30 0 -5 108 c-5 136 -29 192 -98 234 -60 36 -157 46 -216 21z"></path>
        </g>
    </g>
</svg>
