<svg width="40" height="40" viewBox="0 0 40 40" fill="none" xmlns="http://www.w3.org/2000/svg">
	<path d="M33.3334 5H6.66671C4.81671 5 3.33337 6.48333 3.33337 8.33333V28.3333C3.33337 30.1667 4.81671 31.6667 6.66671 31.6667H13.3334V35H26.6667V31.6667H33.3334C35.1667 31.6667 36.6667 30.1667 36.6667 28.3333V8.33333C36.6667 6.48333 35.1667 5 33.3334 5ZM33.3334 28.3333H6.66671V8.33333H33.3334V28.3333Z" fill="#2196F4"/>
	<path d="M10 13.75H23.3333V16.25H10V13.75ZM27.5 16.25H30V13.75H27.5V11.6667H25V18.3334H27.5V16.25ZM16.6667 20.4167H30V22.9167H16.6667V20.4167ZM12.5 25H15V18.3334H12.5V20.4167H10V22.9167H12.5V25Z" fill="#2196F4"/>
</svg>
